<svg width="24" height="24" viewBox="0 0 24 24" fill="none" xmlns="http://www.w3.org/2000/svg">
<path d="M16 5.575L16 10.575H19.425C19.7417 10.575 19.9667 10.7167 20.1 11C20.2333 11.2833 20.2 11.55 20 11.8L12.775 20.625C12.575 20.875 12.3167 21 12 21C11.6833 21 11.425 20.875 11.225 20.625L3.99999 11.8C3.79999 11.55 3.76666 11.2833 3.89999 11C4.03333 10.7167 4.25833 10.575 4.57499 10.575H7.99999V5.575C7.99999 5.29167 8.09583 5.05417 8.28749 4.8625C8.47916 4.67083 8.71666 4.575 8.99999 4.575H15C15.2833 4.575 15.5208 4.67083 15.7125 4.8625C15.9042 5.05417 16 5.29167 16 5.575Z" fill="#EE0000"/>
</svg>
